<svg width="72" height="77" viewBox="0 0 72 77" fill="none" xmlns="http://www.w3.org/2000/svg">
<path fill-rule="evenodd" clip-rule="evenodd" d="M32.7109 77C13.5651 70.2564 -5.34058e-05 53.4418 -5.34058e-05 33.7663C-5.34058e-05 20.4584 6.20564 8.45935 16.1465 0H59C66.1797 0 72 5.8203 72 13V64C72 71.1797 66.1797 77 59 77H32.7109Z" fill="#62BCD3"/>
<path d="M52.0607 39.0607C52.6464 38.4749 52.6464 37.5251 52.0607 36.9393L42.5147 27.3934C41.9289 26.8076 40.9792 26.8076 40.3934 27.3934C39.8076 27.9792 39.8076 28.9289 40.3934 29.5147L48.8787 38L40.3934 46.4853C39.8076 47.0711 39.8076 48.0208 40.3934 48.6066C40.9792 49.1924 41.9289 49.1924 42.5147 48.6066L52.0607 39.0607ZM30 39.5H51V36.5H30V39.5Z" fill="#063677"/>
</svg>
